%TF.GenerationSoftware,KiCad,Pcbnew,10.0.6*%
%TF.CreationDate,2026-09-29T20:36:56+08:00*%
%TF.ProjectId,pcb_study,7063625f-7374-4756-9479-2e6b69636164,vSep29*%
%TF.SameCoordinates,Original*%
%TF.FileFunction,Copper,L1,Top*%
%TF.FilePolarity,Positive*%
%FSLAX46Y46*%
G04 Gerber Fmt 4.6, Leading zero omitted, Abs format (unit mm)*
G04 Created by KiCad (PCBNEW 10.0.6) date 2026-09-29 20:36:56*
%MOMM*%
%LPD*%
G01*
G04 APERTURE LIST*
G04 Aperture macros list*
%AMRoundRect*
0 Rectangle with rounded corners*
0 $1 Rounding radius*
0 $2 $3 $4 $5 $6 $7 $8 $9 X,Y pos of 4 corners*
0 Add a 4 corners polygon primitive as box body*
4,1,4,$2,$3,$4,$5,$6,$7,$8,$9,$2,$3,0*
0 Add four circle primitives for the rounded corners*
1,1,$1+$1,$2,$3*
1,1,$1+$1,$4,$5*
1,1,$1+$1,$6,$7*
1,1,$1+$1,$8,$9*
0 Add four rect primitives between the rounded corners*
20,1,$1+$1,$2,$3,$4,$5,0*
20,1,$1+$1,$4,$5,$6,$7,0*
20,1,$1+$1,$6,$7,$8,$9,0*
20,1,$1+$1,$8,$9,$2,$3,0*%
G04 Aperture macros list end*
%TA.AperFunction,ComponentPad*%
%ADD10RoundRect,0.275000X-0.625000X0.275000X-0.625000X-0.275000X0.625000X-0.275000X0.625000X0.275000X0*%
%TD*%
%TA.AperFunction,ComponentPad*%
%ADD11R,1.800000X1.100000*%
%TD*%
%TA.AperFunction,ComponentPad*%
%ADD12C,1.400000*%
%TD*%
%TA.AperFunction,ComponentPad*%
%ADD13RoundRect,0.250000X1.050000X-1.050000X1.050000X1.050000X-1.050000X1.050000X-1.050000X-1.050000X0*%
%TD*%
%TA.AperFunction,ComponentPad*%
%ADD14C,2.600000*%
%TD*%
%TA.AperFunction,ComponentPad*%
%ADD15R,2.000000X4.600000*%
%TD*%
%TA.AperFunction,ComponentPad*%
%ADD16O,2.000000X4.200000*%
%TD*%
%TA.AperFunction,ComponentPad*%
%ADD17RoundRect,0.300000X-0.700000X-0.700000X0.700000X-0.700000X0.700000X0.700000X-0.700000X0.700000X0*%
%TD*%
%TA.AperFunction,ComponentPad*%
%ADD18C,1.600000*%
%TD*%
%TA.AperFunction,Conductor*%
%ADD19C,0.200000*%
%TD*%
G04 APERTURE END LIST*
D10*
%TO.P,Q1,3,D_3*%
%TO.N,Net-(BZ1--)*%
X128600000Y-90270000D03*
%TO.P,Q1,2,G_2*%
%TO.N,/Gate*%
X130670000Y-89000000D03*
D11*
%TO.P,Q1,1,S_1*%
%TO.N,GND*%
X128600000Y-87730000D03*
%TD*%
D12*
%TO.P,R1,1*%
%TO.N,/Gate*%
X128500000Y-85080000D03*
%TO.P,R1,2*%
%TO.N,GND*%
X128500000Y-80000000D03*
%TD*%
D13*
%TO.P,J2,1,Pin_1_1*%
%TO.N,/Gate*%
X136500000Y-89000000D03*
D14*
%TO.P,J2,2,Pin_2_2*%
%TO.N,VCC*%
X136500000Y-84000000D03*
%TD*%
D15*
%TO.P,J1,1*%
%TO.N,VCC*%
X126150000Y-97000000D03*
D16*
%TO.P,J1,2*%
%TO.N,GND*%
X132450000Y-97000000D03*
%TD*%
D17*
%TO.P,BZ1,1,+_1*%
%TO.N,VCC*%
X104000000Y-83500000D03*
%TO.P,BZ1,2,-_2*%
%TO.N,Net-(BZ1--)*%
X119000000Y-83500000D03*
%TD*%
D18*
%TO.P,C1,1*%
%TO.N,/Gate*%
X130754595Y-84973094D03*
%TO.P,C1,2*%
%TO.N,GND*%
X130754595Y-82473094D03*
%TD*%
%TO.N,/Gate*%
D19*
X136500000Y-89000000D02*
X130270000Y-89000000D01*
X130754595Y-88754595D02*
X130754595Y-84973094D01*
X131000000Y-89000000D02*
X130754595Y-88754595D01*
X130270000Y-89000000D02*
X131000000Y-89000000D01*
X130647689Y-85080000D02*
X130754595Y-84973094D01*
X128500000Y-85080000D02*
X130647689Y-85080000D01*
%TO.N,Net-(BZ1--)*%
X125770000Y-90270000D02*
X129000000Y-90270000D01*
X119000000Y-83500000D02*
X125770000Y-90270000D01*
%TD*%
%TA.AperFunction,Conductor*%
%TO.N,VCC*%
G36*
X144506922Y-66501280D02*
G01*
X144523878Y-66503190D01*
X144597268Y-66511458D01*
X144624333Y-66517636D01*
X144703536Y-66545351D01*
X144713736Y-66551759D01*
X144722007Y-66553559D01*
X144728542Y-66557391D01*
X144799606Y-66602043D01*
X144821313Y-66619355D01*
X144880644Y-66678686D01*
X144897957Y-66700395D01*
X144942602Y-66771447D01*
X144954649Y-66796464D01*
X144982362Y-66875662D01*
X144988541Y-66902734D01*
X144998720Y-66993076D01*
X144999500Y-67006959D01*
X144999500Y-110493040D01*
X144998720Y-110506923D01*
X144988541Y-110597265D01*
X144984561Y-110608637D01*
X144984648Y-110617102D01*
X144982362Y-110624337D01*
X144954649Y-110703535D01*
X144942602Y-110728552D01*
X144897957Y-110799604D01*
X144880644Y-110821313D01*
X144821313Y-110880644D01*
X144799604Y-110897957D01*
X144728552Y-110942602D01*
X144703535Y-110954649D01*
X144624337Y-110982362D01*
X144597265Y-110988541D01*
X144506923Y-110998720D01*
X144493040Y-110999500D01*
X95506960Y-110999500D01*
X95493077Y-110998720D01*
X95402734Y-110988541D01*
X95391361Y-110984561D01*
X95382897Y-110984648D01*
X95375662Y-110982362D01*
X95296464Y-110954649D01*
X95271447Y-110942602D01*
X95200395Y-110897957D01*
X95178686Y-110880644D01*
X95119355Y-110821313D01*
X95102042Y-110799604D01*
X95057397Y-110728552D01*
X95045351Y-110703539D01*
X95017636Y-110624333D01*
X95011458Y-110597268D01*
X95001280Y-110506922D01*
X95000500Y-110493040D01*
X95000500Y-105878711D01*
X131649500Y-105878711D01*
X131649500Y-106121288D01*
X131681161Y-106361785D01*
X131743947Y-106596104D01*
X131836773Y-106820205D01*
X131836776Y-106820212D01*
X131958064Y-107030289D01*
X131958066Y-107030292D01*
X131958067Y-107030293D01*
X132105733Y-107222736D01*
X132105739Y-107222743D01*
X132277256Y-107394260D01*
X132277262Y-107394265D01*
X132469711Y-107541936D01*
X132679788Y-107663224D01*
X132903900Y-107756054D01*
X133138211Y-107818838D01*
X133318586Y-107842584D01*
X133378711Y-107850500D01*
X133378712Y-107850500D01*
X133621289Y-107850500D01*
X133669388Y-107844167D01*
X133861789Y-107818838D01*
X134096100Y-107756054D01*
X134320212Y-107663224D01*
X134530289Y-107541936D01*
X134722738Y-107394265D01*
X134894265Y-107222738D01*
X135041936Y-107030289D01*
X135163224Y-106820212D01*
X135256054Y-106596100D01*
X135318838Y-106361789D01*
X135350500Y-106121288D01*
X135350500Y-105878712D01*
X135318838Y-105638211D01*
X135256054Y-105403900D01*
X135163224Y-105179788D01*
X135041936Y-104969711D01*
X134894265Y-104777262D01*
X134894260Y-104777256D01*
X134722743Y-104605739D01*
X134722736Y-104605733D01*
X134530293Y-104458067D01*
X134530292Y-104458066D01*
X134530289Y-104458064D01*
X134320212Y-104336776D01*
X134320205Y-104336773D01*
X134096104Y-104243947D01*
X133861785Y-104181161D01*
X133621289Y-104149500D01*
X133621288Y-104149500D01*
X133378712Y-104149500D01*
X133378711Y-104149500D01*
X133138214Y-104181161D01*
X132903895Y-104243947D01*
X132679794Y-104336773D01*
X132679785Y-104336777D01*
X132469706Y-104458067D01*
X132277263Y-104605733D01*
X132277256Y-104605739D01*
X132105739Y-104777256D01*
X132105733Y-104777263D01*
X131958067Y-104969706D01*
X131836777Y-105179785D01*
X131836773Y-105179794D01*
X131743947Y-105403895D01*
X131681161Y-105638214D01*
X131649500Y-105878711D01*
X95000500Y-105878711D01*
X95000500Y-94652155D01*
X124650000Y-94652155D01*
X124650000Y-96750000D01*
X125650000Y-96750000D01*
X125650000Y-97250000D01*
X124650000Y-97250000D01*
X124650000Y-99347844D01*
X124656401Y-99407372D01*
X124656403Y-99407379D01*
X124706645Y-99542086D01*
X124706649Y-99542093D01*
X124792809Y-99657187D01*
X124792812Y-99657190D01*
X124907906Y-99743350D01*
X124907913Y-99743354D01*
X125042620Y-99793596D01*
X125042627Y-99793598D01*
X125102155Y-99799999D01*
X125102172Y-99800000D01*
X125900000Y-99800000D01*
X125900000Y-98733012D01*
X125957007Y-98765925D01*
X126084174Y-98800000D01*
X126215826Y-98800000D01*
X126342993Y-98765925D01*
X126400000Y-98733012D01*
X126400000Y-99800000D01*
X127197828Y-99800000D01*
X127197844Y-99799999D01*
X127257372Y-99793598D01*
X127257379Y-99793596D01*
X127392086Y-99743354D01*
X127392093Y-99743350D01*
X127507187Y-99657190D01*
X127507190Y-99657187D01*
X127593350Y-99542093D01*
X127593354Y-99542086D01*
X127643596Y-99407379D01*
X127643598Y-99407372D01*
X127649999Y-99347844D01*
X127650000Y-99347827D01*
X127650000Y-97250000D01*
X126650000Y-97250000D01*
X126650000Y-96750000D01*
X127650000Y-96750000D01*
X127650000Y-95781902D01*
X130949500Y-95781902D01*
X130949500Y-98218097D01*
X130986446Y-98451368D01*
X131059433Y-98675996D01*
X131105255Y-98765925D01*
X131166657Y-98886433D01*
X131305483Y-99077510D01*
X131472490Y-99244517D01*
X131663567Y-99383343D01*
X131762991Y-99434002D01*
X131874003Y-99490566D01*
X131874005Y-99490566D01*
X131874008Y-99490568D01*
X131994412Y-99529689D01*
X132098631Y-99563553D01*
X132331903Y-99600500D01*
X132331908Y-99600500D01*
X132568097Y-99600500D01*
X132801368Y-99563553D01*
X133025992Y-99490568D01*
X133236433Y-99383343D01*
X133427510Y-99244517D01*
X133594517Y-99077510D01*
X133733343Y-98886433D01*
X133840568Y-98675992D01*
X133913553Y-98451368D01*
X133950500Y-98218097D01*
X133950500Y-95781902D01*
X133913553Y-95548631D01*
X133879689Y-95444412D01*
X133840568Y-95324008D01*
X133840566Y-95324005D01*
X133840566Y-95324003D01*
X133733342Y-95113566D01*
X133594517Y-94922490D01*
X133427510Y-94755483D01*
X133236433Y-94616657D01*
X133025996Y-94509433D01*
X132801368Y-94436446D01*
X132568097Y-94399500D01*
X132568092Y-94399500D01*
X132331908Y-94399500D01*
X132331903Y-94399500D01*
X132098631Y-94436446D01*
X131874003Y-94509433D01*
X131663566Y-94616657D01*
X131554550Y-94695862D01*
X131472490Y-94755483D01*
X131472488Y-94755485D01*
X131472487Y-94755485D01*
X131305485Y-94922487D01*
X131305485Y-94922488D01*
X131305483Y-94922490D01*
X131245862Y-95004550D01*
X131166657Y-95113566D01*
X131059433Y-95324003D01*
X130986446Y-95548631D01*
X130949500Y-95781902D01*
X127650000Y-95781902D01*
X127650000Y-94652172D01*
X127649999Y-94652155D01*
X127643598Y-94592627D01*
X127643596Y-94592620D01*
X127593354Y-94457913D01*
X127593350Y-94457906D01*
X127507190Y-94342812D01*
X127507187Y-94342809D01*
X127392093Y-94256649D01*
X127392086Y-94256645D01*
X127257379Y-94206403D01*
X127257372Y-94206401D01*
X127197844Y-94200000D01*
X126400000Y-94200000D01*
X126400000Y-95266988D01*
X126342993Y-95234075D01*
X126215826Y-95200000D01*
X126084174Y-95200000D01*
X125957007Y-95234075D01*
X125900000Y-95266988D01*
X125900000Y-94200000D01*
X125102155Y-94200000D01*
X125042627Y-94206401D01*
X125042620Y-94206403D01*
X124907913Y-94256645D01*
X124907906Y-94256649D01*
X124792812Y-94342809D01*
X124792809Y-94342812D01*
X124706649Y-94457906D01*
X124706645Y-94457913D01*
X124656403Y-94592620D01*
X124656401Y-94592627D01*
X124650000Y-94652155D01*
X95000500Y-94652155D01*
X95000500Y-82755069D01*
X102500000Y-82755069D01*
X102500000Y-83250000D01*
X103566988Y-83250000D01*
X103534075Y-83307007D01*
X103500000Y-83434174D01*
X103500000Y-83565826D01*
X103534075Y-83692993D01*
X103566988Y-83750000D01*
X102500000Y-83750000D01*
X102500000Y-84244930D01*
X102515122Y-84379141D01*
X102574663Y-84549301D01*
X102670577Y-84701948D01*
X102798051Y-84829422D01*
X102950698Y-84925336D01*
X103120858Y-84984877D01*
X103255069Y-84999999D01*
X103255070Y-85000000D01*
X103750000Y-85000000D01*
X103750000Y-83933012D01*
X103807007Y-83965925D01*
X103934174Y-84000000D01*
X104065826Y-84000000D01*
X104192993Y-83965925D01*
X104250000Y-83933012D01*
X104250000Y-85000000D01*
X104744930Y-85000000D01*
X104744930Y-84999999D01*
X104879141Y-84984877D01*
X105049301Y-84925336D01*
X105201948Y-84829422D01*
X105329422Y-84701948D01*
X105425336Y-84549301D01*
X105484877Y-84379141D01*
X105499999Y-84244930D01*
X105500000Y-84244930D01*
X105500000Y-83750000D01*
X104433012Y-83750000D01*
X104465925Y-83692993D01*
X104500000Y-83565826D01*
X104500000Y-83434174D01*
X104465925Y-83307007D01*
X104433012Y-83250000D01*
X105500000Y-83250000D01*
X105500000Y-82755084D01*
X105499998Y-82755054D01*
X105499996Y-82755039D01*
X117499500Y-82755039D01*
X117499500Y-84244960D01*
X117514630Y-84379249D01*
X117514631Y-84379254D01*
X117574211Y-84549523D01*
X117669987Y-84701948D01*
X117670184Y-84702262D01*
X117797738Y-84829816D01*
X117950478Y-84925789D01*
X118119342Y-84984877D01*
X118120745Y-84985368D01*
X118120750Y-84985369D01*
X118211246Y-84995565D01*
X118255040Y-85000499D01*
X118255043Y-85000500D01*
X118255046Y-85000500D01*
X119599903Y-85000500D01*
X119666942Y-85020185D01*
X119687584Y-85036819D01*
X125285139Y-90634374D01*
X125285149Y-90634385D01*
X125289479Y-90638715D01*
X125289480Y-90638716D01*
X125401284Y-90750520D01*
X125487851Y-90800499D01*
X125538215Y-90829577D01*
X125690943Y-90870501D01*
X125690946Y-90870501D01*
X125856653Y-90870501D01*
X125856669Y-90870500D01*
X127195110Y-90870500D01*
X127262149Y-90890185D01*
X127300104Y-90928528D01*
X127364853Y-91031576D01*
X127488424Y-91155147D01*
X127636394Y-91248122D01*
X127801343Y-91305841D01*
X127801349Y-91305841D01*
X127801351Y-91305842D01*
X127842750Y-91310506D01*
X127931442Y-91320499D01*
X127931445Y-91320500D01*
X127931448Y-91320500D01*
X129268555Y-91320500D01*
X129268556Y-91320499D01*
X129398657Y-91305841D01*
X129563606Y-91248122D01*
X129711576Y-91155147D01*
X129835147Y-91031576D01*
X129928122Y-90883606D01*
X129985841Y-90718657D01*
X130000500Y-90588552D01*
X130000500Y-90174500D01*
X130020185Y-90107461D01*
X130072989Y-90061706D01*
X130124500Y-90050500D01*
X131338555Y-90050500D01*
X131338556Y-90050499D01*
X131468657Y-90035841D01*
X131633606Y-89978122D01*
X131781576Y-89885147D01*
X131905147Y-89761576D01*
X131969896Y-89658528D01*
X132022231Y-89612237D01*
X132074890Y-89600500D01*
X134575501Y-89600500D01*
X134642540Y-89620185D01*
X134688295Y-89672989D01*
X134699501Y-89724500D01*
X134699501Y-90100018D01*
X134710000Y-90202796D01*
X134710001Y-90202799D01*
X134765185Y-90369331D01*
X134765186Y-90369334D01*
X134857288Y-90518656D01*
X134981344Y-90642712D01*
X135130666Y-90734814D01*
X135297203Y-90789999D01*
X135399991Y-90800500D01*
X137600008Y-90800499D01*
X137702797Y-90789999D01*
X137869334Y-90734814D01*
X138018656Y-90642712D01*
X138142712Y-90518656D01*
X138234814Y-90369334D01*
X138289999Y-90202797D01*
X138300500Y-90100009D01*
X138300499Y-87899992D01*
X138289999Y-87797203D01*
X138234814Y-87630666D01*
X138142712Y-87481344D01*
X138018656Y-87357288D01*
X137869334Y-87265186D01*
X137702797Y-87210001D01*
X137702795Y-87210000D01*
X137600010Y-87199500D01*
X135399998Y-87199500D01*
X135399981Y-87199501D01*
X135297203Y-87210000D01*
X135297200Y-87210001D01*
X135130668Y-87265185D01*
X135130663Y-87265187D01*
X134981342Y-87357289D01*
X134857289Y-87481342D01*
X134765187Y-87630663D01*
X134765186Y-87630666D01*
X134710001Y-87797203D01*
X134710001Y-87797204D01*
X134710000Y-87797204D01*
X134699500Y-87899983D01*
X134699500Y-88275500D01*
X134679815Y-88342539D01*
X134627011Y-88388294D01*
X134575500Y-88399500D01*
X132074890Y-88399500D01*
X132007851Y-88379815D01*
X131969896Y-88341472D01*
X131905146Y-88238423D01*
X131781576Y-88114853D01*
X131633604Y-88021877D01*
X131468653Y-87964157D01*
X131468654Y-87964157D01*
X131465211Y-87963770D01*
X131463136Y-87962898D01*
X131461861Y-87962607D01*
X131461911Y-87962383D01*
X131400797Y-87936703D01*
X131361242Y-87879108D01*
X131355095Y-87840550D01*
X131355095Y-86202695D01*
X131374780Y-86135656D01*
X131422801Y-86092210D01*
X131436205Y-86085381D01*
X131601814Y-85965060D01*
X131746561Y-85820313D01*
X131746563Y-85820309D01*
X131746566Y-85820307D01*
X131799327Y-85747684D01*
X131866882Y-85654704D01*
X131959815Y-85472313D01*
X132023072Y-85277628D01*
X132055095Y-85075446D01*
X132055095Y-84870742D01*
X132023072Y-84668560D01*
X132017041Y-84650000D01*
X131993005Y-84576022D01*
X131959815Y-84473875D01*
X131959813Y-84473872D01*
X131959813Y-84473870D01*
X131926098Y-84407701D01*
X131866882Y-84291484D01*
X131833081Y-84244960D01*
X131746566Y-84125880D01*
X131601812Y-83981126D01*
X131601805Y-83981120D01*
X131597926Y-83978302D01*
X131597897Y-83978282D01*
X131465395Y-83882014D01*
X134700000Y-83882014D01*
X134700000Y-84117985D01*
X134730799Y-84351914D01*
X134791870Y-84579837D01*
X134882160Y-84797819D01*
X134882165Y-84797828D01*
X135000144Y-85002171D01*
X135000145Y-85002172D01*
X135062721Y-85083723D01*
X135898958Y-84247487D01*
X135923978Y-84307890D01*
X135995112Y-84414351D01*
X136085649Y-84504888D01*
X136192110Y-84576022D01*
X136252511Y-84601041D01*
X135416275Y-85437277D01*
X135497827Y-85499854D01*
X135497828Y-85499855D01*
X135702171Y-85617834D01*
X135702180Y-85617839D01*
X135920163Y-85708129D01*
X135920161Y-85708129D01*
X136148085Y-85769200D01*
X136382014Y-85799999D01*
X136382029Y-85800000D01*
X136617971Y-85800000D01*
X136617985Y-85799999D01*
X136851914Y-85769200D01*
X137079837Y-85708129D01*
X137297819Y-85617839D01*
X137297828Y-85617834D01*
X137502181Y-85499850D01*
X137583723Y-85437279D01*
X137583723Y-85437276D01*
X136747487Y-84601041D01*
X136807890Y-84576022D01*
X136914351Y-84504888D01*
X137004888Y-84414351D01*
X137076022Y-84307890D01*
X137101041Y-84247488D01*
X137937276Y-85083723D01*
X137937279Y-85083723D01*
X137999850Y-85002181D01*
X138117834Y-84797828D01*
X138117839Y-84797819D01*
X138208129Y-84579837D01*
X138269200Y-84351914D01*
X138299999Y-84117985D01*
X138300000Y-84117971D01*
X138300000Y-83882028D01*
X138299999Y-83882014D01*
X138269200Y-83648085D01*
X138208129Y-83420162D01*
X138117839Y-83202180D01*
X138117834Y-83202171D01*
X137999855Y-82997828D01*
X137999854Y-82997827D01*
X137937277Y-82916275D01*
X137101041Y-83752511D01*
X137076022Y-83692110D01*
X137004888Y-83585649D01*
X136914351Y-83495112D01*
X136807890Y-83423978D01*
X136747488Y-83398958D01*
X137583723Y-82562721D01*
X137502172Y-82500145D01*
X137502171Y-82500144D01*
X137297828Y-82382165D01*
X137297819Y-82382160D01*
X137079836Y-82291870D01*
X137079838Y-82291870D01*
X136851914Y-82230799D01*
X136617985Y-82200000D01*
X136382014Y-82200000D01*
X136148085Y-82230799D01*
X135920162Y-82291870D01*
X135702180Y-82382160D01*
X135702171Y-82382165D01*
X135497828Y-82500144D01*
X135497818Y-82500150D01*
X135416275Y-82562720D01*
X135416275Y-82562721D01*
X136252512Y-83398958D01*
X136192110Y-83423978D01*
X136085649Y-83495112D01*
X135995112Y-83585649D01*
X135923978Y-83692110D01*
X135898958Y-83752512D01*
X135062721Y-82916275D01*
X135062720Y-82916275D01*
X135000150Y-82997818D01*
X135000144Y-82997828D01*
X134882165Y-83202171D01*
X134882160Y-83202180D01*
X134791870Y-83420162D01*
X134730799Y-83648085D01*
X134700000Y-83882014D01*
X131465395Y-83882014D01*
X131436204Y-83860806D01*
X131382767Y-83833579D01*
X131331971Y-83785604D01*
X131315176Y-83717783D01*
X131337713Y-83651648D01*
X131382767Y-83612609D01*
X131436205Y-83585381D01*
X131560451Y-83495112D01*
X131601808Y-83465065D01*
X131601810Y-83465062D01*
X131601814Y-83465060D01*
X131746561Y-83320313D01*
X131746563Y-83320309D01*
X131746566Y-83320307D01*
X131832395Y-83202171D01*
X131866882Y-83154704D01*
X131959815Y-82972313D01*
X132023072Y-82777628D01*
X132055095Y-82575446D01*
X132055095Y-82370742D01*
X132028052Y-82200000D01*
X132023072Y-82168559D01*
X131973057Y-82014630D01*
X131959815Y-81973875D01*
X131959813Y-81973872D01*
X131959813Y-81973870D01*
X131926098Y-81907701D01*
X131866882Y-81791484D01*
X131859151Y-81780843D01*
X131746566Y-81625880D01*
X131601808Y-81481122D01*
X131436208Y-81360809D01*
X131436207Y-81360808D01*
X131436205Y-81360807D01*
X131379248Y-81331785D01*
X131253818Y-81267875D01*
X131059129Y-81204616D01*
X130884590Y-81176972D01*
X130856947Y-81172594D01*
X130652243Y-81172594D01*
X130627924Y-81176445D01*
X130450060Y-81204616D01*
X130255371Y-81267875D01*
X130072981Y-81360809D01*
X129907381Y-81481122D01*
X129762623Y-81625880D01*
X129642310Y-81791480D01*
X129549376Y-81973870D01*
X129486117Y-82168559D01*
X129454095Y-82370742D01*
X129454095Y-82575445D01*
X129486117Y-82777628D01*
X129549376Y-82972317D01*
X129642310Y-83154707D01*
X129762623Y-83320307D01*
X129907381Y-83465065D01*
X130072983Y-83585380D01*
X130126423Y-83612610D01*
X130177218Y-83660584D01*
X130194013Y-83728406D01*
X130171475Y-83794540D01*
X130126423Y-83833578D01*
X130072983Y-83860807D01*
X129907381Y-83981122D01*
X129762623Y-84125880D01*
X129642307Y-84291483D01*
X129642304Y-84291488D01*
X129638822Y-84298322D01*
X129590844Y-84349115D01*
X129523022Y-84365905D01*
X129456889Y-84343362D01*
X129428025Y-84314905D01*
X129415690Y-84297927D01*
X129282073Y-84164310D01*
X129129199Y-84053240D01*
X128960836Y-83967454D01*
X128781118Y-83909059D01*
X128594486Y-83879500D01*
X128594481Y-83879500D01*
X128405519Y-83879500D01*
X128405514Y-83879500D01*
X128218881Y-83909059D01*
X128039163Y-83967454D01*
X127870800Y-84053240D01*
X127806575Y-84099903D01*
X127717927Y-84164310D01*
X127717925Y-84164312D01*
X127717924Y-84164312D01*
X127584312Y-84297924D01*
X127584312Y-84297925D01*
X127584310Y-84297927D01*
X127536610Y-84363579D01*
X127473240Y-84450800D01*
X127387454Y-84619163D01*
X127329059Y-84798881D01*
X127299500Y-84985513D01*
X127299500Y-85174486D01*
X127329059Y-85361118D01*
X127387454Y-85540836D01*
X127445473Y-85654704D01*
X127473240Y-85709199D01*
X127584310Y-85862073D01*
X127717927Y-85995690D01*
X127870801Y-86106760D01*
X127927513Y-86135656D01*
X128039163Y-86192545D01*
X128039165Y-86192545D01*
X128039168Y-86192547D01*
X128135497Y-86223846D01*
X128218881Y-86250940D01*
X128405514Y-86280500D01*
X128405519Y-86280500D01*
X128594486Y-86280500D01*
X128781118Y-86250940D01*
X128960832Y-86192547D01*
X129129199Y-86106760D01*
X129282073Y-85995690D01*
X129415690Y-85862073D01*
X129504013Y-85740507D01*
X129559342Y-85697843D01*
X129628956Y-85691864D01*
X129690751Y-85724470D01*
X129704646Y-85740506D01*
X129762629Y-85820313D01*
X129907376Y-85965060D01*
X130072985Y-86085381D01*
X130086388Y-86092210D01*
X130137184Y-86140182D01*
X130154095Y-86202695D01*
X130154095Y-86846035D01*
X130134410Y-86913074D01*
X130081606Y-86958829D01*
X130012448Y-86968773D01*
X129948892Y-86939748D01*
X129930829Y-86920346D01*
X129857547Y-86822455D01*
X129857544Y-86822452D01*
X129742335Y-86736206D01*
X129742328Y-86736202D01*
X129607482Y-86685908D01*
X129607483Y-86685908D01*
X129547883Y-86679501D01*
X129547881Y-86679500D01*
X129547873Y-86679500D01*
X129547864Y-86679500D01*
X127652129Y-86679500D01*
X127652123Y-86679501D01*
X127592516Y-86685908D01*
X127457671Y-86736202D01*
X127457664Y-86736206D01*
X127342455Y-86822452D01*
X127342452Y-86822455D01*
X127256206Y-86937664D01*
X127256202Y-86937671D01*
X127205908Y-87072517D01*
X127199501Y-87132116D01*
X127199500Y-87132135D01*
X127199500Y-88327870D01*
X127199501Y-88327876D01*
X127205908Y-88387483D01*
X127256202Y-88522328D01*
X127256206Y-88522335D01*
X127342452Y-88637544D01*
X127342455Y-88637547D01*
X127457664Y-88723793D01*
X127457671Y-88723797D01*
X127592517Y-88774091D01*
X127592516Y-88774091D01*
X127599444Y-88774835D01*
X127652127Y-88780500D01*
X129145500Y-88780499D01*
X129212539Y-88800184D01*
X129258294Y-88852987D01*
X129269500Y-88904499D01*
X129269500Y-89095500D01*
X129249815Y-89162539D01*
X129197011Y-89208294D01*
X129145500Y-89219500D01*
X127931441Y-89219500D01*
X127801351Y-89234157D01*
X127801341Y-89234159D01*
X127636395Y-89291877D01*
X127488423Y-89384853D01*
X127364853Y-89508423D01*
X127300104Y-89611472D01*
X127247769Y-89657763D01*
X127195110Y-89669500D01*
X126070097Y-89669500D01*
X126003058Y-89649815D01*
X125982416Y-89633181D01*
X120536819Y-84187584D01*
X120503334Y-84126261D01*
X120500500Y-84099903D01*
X120500500Y-82755043D01*
X120500499Y-82755039D01*
X120485369Y-82620750D01*
X120485368Y-82620745D01*
X120469515Y-82575441D01*
X120425789Y-82450478D01*
X120329816Y-82297738D01*
X120202262Y-82170184D01*
X120199676Y-82168559D01*
X120049523Y-82074211D01*
X119879254Y-82014631D01*
X119879249Y-82014630D01*
X119744960Y-81999500D01*
X119744954Y-81999500D01*
X118255046Y-81999500D01*
X118255039Y-81999500D01*
X118120750Y-82014630D01*
X118120745Y-82014631D01*
X117950476Y-82074211D01*
X117797737Y-82170184D01*
X117670184Y-82297737D01*
X117574211Y-82450476D01*
X117514631Y-82620745D01*
X117514630Y-82620750D01*
X117499500Y-82755039D01*
X105499996Y-82755039D01*
X105484877Y-82620858D01*
X105425336Y-82450698D01*
X105329422Y-82298051D01*
X105201948Y-82170577D01*
X105049301Y-82074663D01*
X104879141Y-82015122D01*
X104744930Y-82000000D01*
X104250000Y-82000000D01*
X104250000Y-83066988D01*
X104192993Y-83034075D01*
X104065826Y-83000000D01*
X103934174Y-83000000D01*
X103807007Y-83034075D01*
X103750000Y-83066988D01*
X103750000Y-82000000D01*
X103255070Y-82000000D01*
X103120858Y-82015122D01*
X102950698Y-82074663D01*
X102798051Y-82170577D01*
X102670577Y-82298051D01*
X102574663Y-82450698D01*
X102515122Y-82620858D01*
X102500000Y-82755069D01*
X95000500Y-82755069D01*
X95000500Y-79905513D01*
X127299500Y-79905513D01*
X127299500Y-80094486D01*
X127329059Y-80281118D01*
X127387454Y-80460836D01*
X127473240Y-80629199D01*
X127584310Y-80782073D01*
X127717927Y-80915690D01*
X127870801Y-81026760D01*
X127950347Y-81067290D01*
X128039163Y-81112545D01*
X128039165Y-81112545D01*
X128039168Y-81112547D01*
X128135497Y-81143846D01*
X128218881Y-81170940D01*
X128405514Y-81200500D01*
X128405519Y-81200500D01*
X128594486Y-81200500D01*
X128781118Y-81170940D01*
X128960832Y-81112547D01*
X129129199Y-81026760D01*
X129282073Y-80915690D01*
X129415690Y-80782073D01*
X129526760Y-80629199D01*
X129612547Y-80460832D01*
X129670940Y-80281118D01*
X129700500Y-80094486D01*
X129700500Y-79905513D01*
X129670940Y-79718881D01*
X129612545Y-79539163D01*
X129526759Y-79370800D01*
X129415690Y-79217927D01*
X129282073Y-79084310D01*
X129129199Y-78973240D01*
X128960836Y-78887454D01*
X128781118Y-78829059D01*
X128594486Y-78799500D01*
X128594481Y-78799500D01*
X128405519Y-78799500D01*
X128405514Y-78799500D01*
X128218881Y-78829059D01*
X128039163Y-78887454D01*
X127870800Y-78973240D01*
X127783579Y-79036610D01*
X127717927Y-79084310D01*
X127717925Y-79084312D01*
X127717924Y-79084312D01*
X127584312Y-79217924D01*
X127584312Y-79217925D01*
X127584310Y-79217927D01*
X127536610Y-79283579D01*
X127473240Y-79370800D01*
X127387454Y-79539163D01*
X127329059Y-79718881D01*
X127299500Y-79905513D01*
X95000500Y-79905513D01*
X95000500Y-76878711D01*
X131149500Y-76878711D01*
X131149500Y-77121288D01*
X131181161Y-77361785D01*
X131243947Y-77596104D01*
X131336773Y-77820205D01*
X131336776Y-77820212D01*
X131458064Y-78030289D01*
X131458066Y-78030292D01*
X131458067Y-78030293D01*
X131605733Y-78222736D01*
X131605739Y-78222743D01*
X131777256Y-78394260D01*
X131777262Y-78394265D01*
X131969711Y-78541936D01*
X132179788Y-78663224D01*
X132403900Y-78756054D01*
X132638211Y-78818838D01*
X132818586Y-78842584D01*
X132878711Y-78850500D01*
X132878712Y-78850500D01*
X133121289Y-78850500D01*
X133169388Y-78844167D01*
X133361789Y-78818838D01*
X133596100Y-78756054D01*
X133820212Y-78663224D01*
X134030289Y-78541936D01*
X134222738Y-78394265D01*
X134394265Y-78222738D01*
X134541936Y-78030289D01*
X134663224Y-77820212D01*
X134756054Y-77596100D01*
X134818838Y-77361789D01*
X134850500Y-77121288D01*
X134850500Y-76878712D01*
X134818838Y-76638211D01*
X134756054Y-76403900D01*
X134663224Y-76179788D01*
X134541936Y-75969711D01*
X134394265Y-75777262D01*
X134394260Y-75777256D01*
X134222743Y-75605739D01*
X134222736Y-75605733D01*
X134030293Y-75458067D01*
X134030292Y-75458066D01*
X134030289Y-75458064D01*
X133820212Y-75336776D01*
X133820205Y-75336773D01*
X133596104Y-75243947D01*
X133361785Y-75181161D01*
X133121289Y-75149500D01*
X133121288Y-75149500D01*
X132878712Y-75149500D01*
X132878711Y-75149500D01*
X132638214Y-75181161D01*
X132403895Y-75243947D01*
X132179794Y-75336773D01*
X132179785Y-75336777D01*
X131969706Y-75458067D01*
X131777263Y-75605733D01*
X131777256Y-75605739D01*
X131605739Y-75777256D01*
X131605733Y-75777263D01*
X131458067Y-75969706D01*
X131336777Y-76179785D01*
X131336773Y-76179794D01*
X131243947Y-76403895D01*
X131181161Y-76638214D01*
X131149500Y-76878711D01*
X95000500Y-76878711D01*
X95000500Y-67006959D01*
X95001280Y-66993077D01*
X95001320Y-66992717D01*
X95011458Y-66902732D01*
X95015437Y-66891362D01*
X95015351Y-66882897D01*
X95017629Y-66875684D01*
X95045353Y-66796457D01*
X95057393Y-66771453D01*
X95102046Y-66700389D01*
X95119351Y-66678690D01*
X95178690Y-66619351D01*
X95200389Y-66602046D01*
X95271453Y-66557393D01*
X95296457Y-66545353D01*
X95375668Y-66517635D01*
X95402729Y-66511459D01*
X95478753Y-66502893D01*
X95493078Y-66501280D01*
X95506960Y-66500500D01*
X95565892Y-66500500D01*
X144434108Y-66500500D01*
X144493040Y-66500500D01*
X144506922Y-66501280D01*
G37*
%TD.AperFunction*%
%TD*%
M02*
