%TF.GenerationSoftware,KiCad,Pcbnew,10.0.6*%
%TF.CreationDate,2026-09-29T20:36:56+08:00*%
%TF.ProjectId,pcb_study,7063625f-7374-4756-9479-2e6b69636164,vSep29*%
%TF.SameCoordinates,Original*%
%TF.FileFunction,Legend,Top*%
%TF.FilePolarity,Positive*%
%FSLAX46Y46*%
G04 Gerber Fmt 4.6, Leading zero omitted, Abs format (unit mm)*
G04 Created by KiCad (PCBNEW 10.0.6) date 2026-09-29 20:36:56*
%MOMM*%
%LPD*%
G01*
G04 APERTURE LIST*
%ADD10C,0.100000*%
%ADD11C,0.150000*%
%ADD12C,0.120000*%
G04 APERTURE END LIST*
D10*
X96161027Y-108872419D02*
X96494360Y-109872419D01*
X96494360Y-109872419D02*
X96827693Y-108872419D01*
X97684836Y-109872419D02*
X97113408Y-109872419D01*
X97399122Y-109872419D02*
X97399122Y-108872419D01*
X97399122Y-108872419D02*
X97303884Y-109015276D01*
X97303884Y-109015276D02*
X97208646Y-109110514D01*
X97208646Y-109110514D02*
X97113408Y-109158133D01*
X98113408Y-109777180D02*
X98161027Y-109824800D01*
X98161027Y-109824800D02*
X98113408Y-109872419D01*
X98113408Y-109872419D02*
X98065789Y-109824800D01*
X98065789Y-109824800D02*
X98113408Y-109777180D01*
X98113408Y-109777180D02*
X98113408Y-109872419D01*
X98780074Y-108872419D02*
X98875312Y-108872419D01*
X98875312Y-108872419D02*
X98970550Y-108920038D01*
X98970550Y-108920038D02*
X99018169Y-108967657D01*
X99018169Y-108967657D02*
X99065788Y-109062895D01*
X99065788Y-109062895D02*
X99113407Y-109253371D01*
X99113407Y-109253371D02*
X99113407Y-109491466D01*
X99113407Y-109491466D02*
X99065788Y-109681942D01*
X99065788Y-109681942D02*
X99018169Y-109777180D01*
X99018169Y-109777180D02*
X98970550Y-109824800D01*
X98970550Y-109824800D02*
X98875312Y-109872419D01*
X98875312Y-109872419D02*
X98780074Y-109872419D01*
X98780074Y-109872419D02*
X98684836Y-109824800D01*
X98684836Y-109824800D02*
X98637217Y-109777180D01*
X98637217Y-109777180D02*
X98589598Y-109681942D01*
X98589598Y-109681942D02*
X98541979Y-109491466D01*
X98541979Y-109491466D02*
X98541979Y-109253371D01*
X98541979Y-109253371D02*
X98589598Y-109062895D01*
X98589598Y-109062895D02*
X98637217Y-108967657D01*
X98637217Y-108967657D02*
X98684836Y-108920038D01*
X98684836Y-108920038D02*
X98780074Y-108872419D01*
D11*
X133950057Y-89095238D02*
X133902438Y-89190476D01*
X133902438Y-89190476D02*
X133807200Y-89285714D01*
X133807200Y-89285714D02*
X133664342Y-89428571D01*
X133664342Y-89428571D02*
X133616723Y-89523809D01*
X133616723Y-89523809D02*
X133616723Y-89619047D01*
X133854819Y-89571428D02*
X133807200Y-89666666D01*
X133807200Y-89666666D02*
X133711961Y-89761904D01*
X133711961Y-89761904D02*
X133521485Y-89809523D01*
X133521485Y-89809523D02*
X133188152Y-89809523D01*
X133188152Y-89809523D02*
X132997676Y-89761904D01*
X132997676Y-89761904D02*
X132902438Y-89666666D01*
X132902438Y-89666666D02*
X132854819Y-89571428D01*
X132854819Y-89571428D02*
X132854819Y-89380952D01*
X132854819Y-89380952D02*
X132902438Y-89285714D01*
X132902438Y-89285714D02*
X132997676Y-89190476D01*
X132997676Y-89190476D02*
X133188152Y-89142857D01*
X133188152Y-89142857D02*
X133521485Y-89142857D01*
X133521485Y-89142857D02*
X133711961Y-89190476D01*
X133711961Y-89190476D02*
X133807200Y-89285714D01*
X133807200Y-89285714D02*
X133854819Y-89380952D01*
X133854819Y-89380952D02*
X133854819Y-89571428D01*
X133854819Y-88190476D02*
X133854819Y-88761904D01*
X133854819Y-88476190D02*
X132854819Y-88476190D01*
X132854819Y-88476190D02*
X132997676Y-88571428D01*
X132997676Y-88571428D02*
X133092914Y-88666666D01*
X133092914Y-88666666D02*
X133140533Y-88761904D01*
X128954819Y-82706666D02*
X128478628Y-83039999D01*
X128954819Y-83278094D02*
X127954819Y-83278094D01*
X127954819Y-83278094D02*
X127954819Y-82897142D01*
X127954819Y-82897142D02*
X128002438Y-82801904D01*
X128002438Y-82801904D02*
X128050057Y-82754285D01*
X128050057Y-82754285D02*
X128145295Y-82706666D01*
X128145295Y-82706666D02*
X128288152Y-82706666D01*
X128288152Y-82706666D02*
X128383390Y-82754285D01*
X128383390Y-82754285D02*
X128431009Y-82801904D01*
X128431009Y-82801904D02*
X128478628Y-82897142D01*
X128478628Y-82897142D02*
X128478628Y-83278094D01*
X128954819Y-81754285D02*
X128954819Y-82325713D01*
X128954819Y-82039999D02*
X127954819Y-82039999D01*
X127954819Y-82039999D02*
X128097676Y-82135237D01*
X128097676Y-82135237D02*
X128192914Y-82230475D01*
X128192914Y-82230475D02*
X128240533Y-82325713D01*
X130834819Y-86833333D02*
X131549104Y-86833333D01*
X131549104Y-86833333D02*
X131691961Y-86880952D01*
X131691961Y-86880952D02*
X131787200Y-86976190D01*
X131787200Y-86976190D02*
X131834819Y-87119047D01*
X131834819Y-87119047D02*
X131834819Y-87214285D01*
X130930057Y-86404761D02*
X130882438Y-86357142D01*
X130882438Y-86357142D02*
X130834819Y-86261904D01*
X130834819Y-86261904D02*
X130834819Y-86023809D01*
X130834819Y-86023809D02*
X130882438Y-85928571D01*
X130882438Y-85928571D02*
X130930057Y-85880952D01*
X130930057Y-85880952D02*
X131025295Y-85833333D01*
X131025295Y-85833333D02*
X131120533Y-85833333D01*
X131120533Y-85833333D02*
X131263390Y-85880952D01*
X131263390Y-85880952D02*
X131834819Y-86452380D01*
X131834819Y-86452380D02*
X131834819Y-85833333D01*
X123104819Y-97333333D02*
X123819104Y-97333333D01*
X123819104Y-97333333D02*
X123961961Y-97380952D01*
X123961961Y-97380952D02*
X124057200Y-97476190D01*
X124057200Y-97476190D02*
X124104819Y-97619047D01*
X124104819Y-97619047D02*
X124104819Y-97714285D01*
X124104819Y-96333333D02*
X124104819Y-96904761D01*
X124104819Y-96619047D02*
X123104819Y-96619047D01*
X123104819Y-96619047D02*
X123247676Y-96714285D01*
X123247676Y-96714285D02*
X123342914Y-96809523D01*
X123342914Y-96809523D02*
X123390533Y-96904761D01*
D10*
X98619047Y-78433609D02*
X98761904Y-78481228D01*
X98761904Y-78481228D02*
X98809523Y-78528847D01*
X98809523Y-78528847D02*
X98857142Y-78624085D01*
X98857142Y-78624085D02*
X98857142Y-78766942D01*
X98857142Y-78766942D02*
X98809523Y-78862180D01*
X98809523Y-78862180D02*
X98761904Y-78909800D01*
X98761904Y-78909800D02*
X98666666Y-78957419D01*
X98666666Y-78957419D02*
X98285714Y-78957419D01*
X98285714Y-78957419D02*
X98285714Y-77957419D01*
X98285714Y-77957419D02*
X98619047Y-77957419D01*
X98619047Y-77957419D02*
X98714285Y-78005038D01*
X98714285Y-78005038D02*
X98761904Y-78052657D01*
X98761904Y-78052657D02*
X98809523Y-78147895D01*
X98809523Y-78147895D02*
X98809523Y-78243133D01*
X98809523Y-78243133D02*
X98761904Y-78338371D01*
X98761904Y-78338371D02*
X98714285Y-78385990D01*
X98714285Y-78385990D02*
X98619047Y-78433609D01*
X98619047Y-78433609D02*
X98285714Y-78433609D01*
X99190476Y-77957419D02*
X99857142Y-77957419D01*
X99857142Y-77957419D02*
X99190476Y-78957419D01*
X99190476Y-78957419D02*
X99857142Y-78957419D01*
X100761904Y-78957419D02*
X100190476Y-78957419D01*
X100476190Y-78957419D02*
X100476190Y-77957419D01*
X100476190Y-77957419D02*
X100380952Y-78100276D01*
X100380952Y-78100276D02*
X100285714Y-78195514D01*
X100285714Y-78195514D02*
X100190476Y-78243133D01*
X117730074Y-86684800D02*
X120015789Y-86684800D01*
D11*
X129064175Y-83889760D02*
X129111795Y-83937379D01*
X129111795Y-83937379D02*
X129159414Y-84080236D01*
X129159414Y-84080236D02*
X129159414Y-84175474D01*
X129159414Y-84175474D02*
X129111795Y-84318331D01*
X129111795Y-84318331D02*
X129016556Y-84413569D01*
X129016556Y-84413569D02*
X128921318Y-84461188D01*
X128921318Y-84461188D02*
X128730842Y-84508807D01*
X128730842Y-84508807D02*
X128587985Y-84508807D01*
X128587985Y-84508807D02*
X128397509Y-84461188D01*
X128397509Y-84461188D02*
X128302271Y-84413569D01*
X128302271Y-84413569D02*
X128207033Y-84318331D01*
X128207033Y-84318331D02*
X128159414Y-84175474D01*
X128159414Y-84175474D02*
X128159414Y-84080236D01*
X128159414Y-84080236D02*
X128207033Y-83937379D01*
X128207033Y-83937379D02*
X128254652Y-83889760D01*
X129159414Y-82937379D02*
X129159414Y-83508807D01*
X129159414Y-83223093D02*
X128159414Y-83223093D01*
X128159414Y-83223093D02*
X128302271Y-83318331D01*
X128302271Y-83318331D02*
X128397509Y-83413569D01*
X128397509Y-83413569D02*
X128445128Y-83508807D01*
%TO.C,Q1*%
D12*
X131450000Y-89780000D02*
G75*
G02*
X127172316Y-90808445I-2450000J780000D01*
G01*
X127158259Y-87188125D02*
G75*
G02*
X131450000Y-88180000I1841741J-1811875D01*
G01*
X127150000Y-87200000D02*
X127150000Y-90800000D01*
%TO.C,R1*%
X127580000Y-84460000D02*
X127580000Y-80620000D01*
X129420000Y-84460000D02*
X129420000Y-80620000D01*
%TO.C,J2*%
X132380000Y-81380000D02*
X141620000Y-81380000D01*
X132380000Y-91620000D02*
X132380000Y-81380000D01*
X140000000Y-91620000D02*
X140000000Y-81380000D01*
X141100000Y-91620000D02*
X141100000Y-81380000D01*
X141620000Y-81380000D02*
X141620000Y-88700000D01*
X141620000Y-89300000D02*
X141620000Y-91620000D01*
X141620000Y-91620000D02*
X132380000Y-91620000D01*
X141620000Y-89000000D02*
X142230000Y-88560000D01*
X142230000Y-89440000D01*
X141620000Y-89000000D01*
G36*
X142230000Y-89440000D02*
G01*
X141620000Y-89000000D01*
X142230000Y-88560000D01*
X142230000Y-89440000D01*
G37*
%TO.C,J1*%
X125150000Y-100200000D02*
X125150000Y-101900000D01*
X125150000Y-101900000D02*
X126450000Y-101900000D01*
X125450000Y-92400000D02*
X131350000Y-92400000D01*
X125450000Y-94400000D02*
X125450000Y-92400000D01*
X125450000Y-101600000D02*
X125450000Y-99600000D01*
X131350000Y-92400000D02*
X139950000Y-92400000D01*
X139950000Y-92400000D02*
X139950000Y-101600000D01*
X139950000Y-101600000D02*
X125450000Y-101600000D01*
%TO.C,BZ1*%
D10*
X126500000Y-83500000D02*
G75*
G02*
X96500000Y-83500000I-15000000J0D01*
G01*
X96500000Y-83500000D02*
G75*
G02*
X126500000Y-83500000I15000000J0D01*
G01*
%TO.C,C1*%
D12*
X129834595Y-84488094D02*
X129834595Y-82958094D01*
X131674595Y-82958094D02*
X131674595Y-84488094D01*
%TD*%
M02*
